<?xml version="1.0" encoding="utf-8"?>
<!-- Generator: Adobe Illustrator 16.0.0, SVG Export Plug-In . SVG Version: 6.00 Build 0)  -->
<!DOCTYPE svg PUBLIC "-//W3C//DTD SVG 1.1//EN" "http://www.w3.org/Graphics/SVG/1.1/DTD/svg11.dtd">
<svg version="1.1" id="Layer_1" xmlns="http://www.w3.org/2000/svg" xmlns:xlink="http://www.w3.org/1999/xlink" x="0px" y="0px"
	 width="225.354px" height="49.396px" viewBox="0 0 225.354 49.396" enable-background="new 0 0 225.354 49.396"
	 xml:space="preserve">
<g>
	<path fill="#FFFFFF" d="M62.42,28.387h4.621v1.594c0,1.524,0.191,2.563,0.572,3.116s1.039,0.829,1.973,0.829
		c0.977,0,1.721-0.247,2.23-0.741c0.51-0.493,0.764-1.224,0.764-2.189c0-0.741-0.176-1.377-0.531-1.908
		c-0.354-0.531-1.121-1.216-2.303-2.053l-2.367-1.675c-2.039-1.417-3.336-2.587-3.889-3.511c-0.553-0.923-0.828-2.082-0.828-3.478
		c0-2.083,0.617-3.714,1.852-4.896c1.234-1.181,2.936-1.771,5.104-1.771c2.297,0,4.059,0.629,5.283,1.885
		c1.223,1.256,1.834,3.059,1.834,5.41c0,0.236-0.002,0.419-0.008,0.547c-0.006,0.129-0.014,0.242-0.023,0.339h-4.381v-0.66
		c0-1.342-0.219-2.303-0.66-2.883c-0.439-0.579-1.164-0.869-2.174-0.869c-0.74,0-1.322,0.217-1.746,0.652
		c-0.424,0.435-0.637,1.038-0.637,1.812c0,1.041,0.951,2.195,2.852,3.462c0.02,0.011,0.037,0.021,0.047,0.032l2.545,1.723
		c1.814,1.202,3.043,2.338,3.688,3.405c0.645,1.068,0.965,2.429,0.965,4.082c0,2.254-0.643,3.993-1.932,5.217
		c-1.287,1.225-3.129,1.836-5.523,1.836c-2.49,0-4.344-0.644-5.563-1.933c-1.219-1.288-1.828-3.252-1.828-5.893
		c0-0.279,0.021-0.741,0.064-1.385V28.387z"/>
	<path fill="#FFFFFF" d="M94.105,28.258h4.492c0,0.107,0.006,0.266,0.018,0.475c0.01,0.21,0.016,0.373,0.016,0.491
		c0,2.866-0.604,4.994-1.813,6.385c-1.207,1.39-3.057,2.085-5.547,2.085c-1.18,0-2.195-0.153-3.043-0.459s-1.578-0.781-2.189-1.425
		c-0.838-0.858-1.428-2.039-1.771-3.543c-0.344-1.502-0.516-4.122-0.516-7.857c0-2.555,0.102-4.586,0.307-6.095
		c0.203-1.508,0.52-2.633,0.949-3.373c0.666-1.138,1.492-1.962,2.48-2.472c0.986-0.51,2.248-0.766,3.783-0.766
		c2.512,0,4.34,0.655,5.482,1.965c1.145,1.31,1.721,3.414,1.732,6.313H94.01v-0.596c0-1.342-0.217-2.344-0.652-3.004
		s-1.098-0.99-1.988-0.99c-1.105,0-1.859,0.457-2.264,1.369c-0.402,0.912-0.604,3.436-0.604,7.568c0,4.466,0.195,7.181,0.588,8.147
		c0.393,0.966,1.141,1.449,2.246,1.449c1.031,0,1.75-0.379,2.158-1.136s0.611-2.154,0.611-4.194V28.258z"/>
	<path fill="#FFFFFF" d="M105.615,12.301h4.621v16.714c0,1.91,0.234,3.207,0.701,3.889s1.297,1.022,2.488,1.022
		c1.18,0,1.998-0.344,2.455-1.031c0.457-0.687,0.684-2.002,0.684-3.944V12.301h4.559v17.116c0,1.664-0.096,2.88-0.283,3.647
		s-0.502,1.44-0.941,2.021c-0.666,0.869-1.547,1.521-2.641,1.956c-1.096,0.435-2.395,0.652-3.896,0.652
		c-2.834,0-4.834-0.614-5.998-1.844c-1.166-1.229-1.748-3.373-1.748-6.433V12.301z"/>
	<path fill="#FFFFFF" d="M128.607,37.098V12.301h4.621v20.578h8.34v4.219H128.607z"/>
	<path fill="#FFFFFF" d="M148.828,37.098V16.391h-5.314v-4.09h15.248v4.09h-5.313v20.707H148.828z"/>
	<path fill="#FFFFFF" d="M164.492,12.301h4.621v16.714c0,1.91,0.232,3.207,0.699,3.889c0.469,0.682,1.297,1.022,2.488,1.022
		c1.182,0,2-0.344,2.455-1.031c0.457-0.687,0.686-2.002,0.686-3.944V12.301h4.557v17.116c0,1.664-0.094,2.88-0.281,3.647
		s-0.502,1.44-0.943,2.021c-0.664,0.869-1.545,1.521-2.641,1.956c-1.094,0.435-2.393,0.652-3.896,0.652
		c-2.834,0-4.832-0.614-5.998-1.844c-1.164-1.229-1.746-3.373-1.746-6.433V12.301z"/>
	<path fill="#FFFFFF" d="M187.482,37.098V12.301h8.275c2.502,0,4.303,0.507,5.402,1.521c1.102,1.015,1.65,2.67,1.65,4.967
		c0,1.61-0.295,2.88-0.885,3.809s-1.461,1.474-2.609,1.635c2.191,0.579,3.334,2.431,3.43,5.555c0,0.14,0,0.247,0,0.322l0.129,3.285
		c0.043,0.934,0.162,1.683,0.355,2.246s0.492,1.049,0.9,1.457h-5.475c-0.129-0.419-0.225-0.91-0.289-1.474s-0.107-1.36-0.129-2.391
		l-0.064-2.593v-0.66c0-1.438-0.307-2.426-0.918-2.963c-0.611-0.536-1.857-0.805-3.736-0.805h-1.578v10.885H187.482z
		 M191.941,22.783h2.658c1.342,0,2.271-0.269,2.793-0.806c0.521-0.536,0.781-1.497,0.781-2.882c0-1.234-0.285-2.099-0.854-2.593
		c-0.568-0.493-1.605-0.74-3.107-0.74h-2.271V22.783z"/>
	<path fill="#FFFFFF" d="M207.994,37.098l5.586-24.797h6.199l5.637,24.797h-4.977l-1.223-6.231h-5.314l-1.191,6.231H207.994z
		 M214.627,27.146h3.93l-1.98-10.402L214.627,27.146z"/>
</g>
<g>
	<g>
		<g>
			<path fill-rule="evenodd" clip-rule="evenodd" fill="#D79576" d="M41.98,19.307c-0.171-0.183-0.358-0.352-0.509-0.549
				c-2.476-3.252-5.294-6.158-8.631-8.535c-2.567-1.829-5.329-3.237-8.475-3.769c-1.942-0.327-3.894-0.427-5.686,0.558
				c-0.68,0.372-1.331,0.938-1.776,1.568c-1.113,1.575-0.852,3.365,0.575,4.733c1.118,1.075,2.445,1.852,3.857,2.451
				c2.634,1.118,5.293,2.178,7.951,3.238c3.606,1.44,7.218,2.87,10.46,5.062c2.156,1.455,4.055,3.164,5.177,5.581
				c1.26,2.716,1.214,5.483,0.17,8.233c-1.309,3.444-3.833,5.871-6.818,7.88c-0.342,0.23-0.693,0.447-1.053,0.647
				c-0.121,0.068-0.284,0.066-0.426,0.096c0.005-0.16-0.028-0.333,0.022-0.476c0.302-0.847,0.752-1.66,0.915-2.531
				c0.67-3.554-0.388-6.591-2.988-9.082c-2.278-2.18-5.058-3.564-7.923-4.77c-3.146-1.322-6.337-2.535-9.482-3.855
				c-2.665-1.117-5.25-2.398-7.482-4.28c-2.009-1.694-3.458-3.739-3.909-6.386C5.38,11.773,6.2,8.782,8.35,6.164
				c2.461-2.994,5.751-4.621,9.441-5.485c4.774-1.117,9.503-0.857,14.13,0.789c2.474,0.879,4.799,2.054,6.74,3.87
				c1.013,0.947,1.868,2.013,2.244,3.391c0.348,1.277,0.16,2.477-0.446,3.646c-0.133,0.258-0.176,0.644-0.093,0.92
				c0.538,1.783,1.125,3.551,1.69,5.324c0.06,0.188,0.064,0.393,0.096,0.589C42.096,19.241,42.038,19.274,41.98,19.307z"/>
		</g>
		<g>
			<path fill-rule="evenodd" clip-rule="evenodd" fill="#B83493" d="M22.326,49.397c-3.068-0.055-6.756-1.191-10.17-3.225
				c-4.253-2.536-7.508-6.021-9.712-10.461c-1.833-3.688-2.626-7.608-2.491-11.723c0.063-1.95,0.37-3.859,0.889-5.737
				c0.042-0.151,0.211-0.27,0.321-0.403c0.071,0.123,0.192,0.24,0.206,0.371c0.382,3.487,2.104,6.228,4.723,8.46
				c2.6,2.216,5.616,3.716,8.734,5.026c3.271,1.37,6.576,2.664,9.842,4.047c1.754,0.743,3.415,1.668,4.876,2.925
				c3.379,2.908,2.579,8.102-1.528,9.853C26.604,49.132,25.147,49.397,22.326,49.397z"/>
		</g>
	</g>
</g>
</svg>
